<?xml version="1.0" encoding="UTF-8" standalone="no"?>
<!-- Created with Inkscape (http://www.inkscape.org/) -->

<svg
   xmlns:dc="http://purl.org/dc/elements/1.1/"
   xmlns:cc="http://creativecommons.org/ns#"
   xmlns:rdf="http://www.w3.org/1999/02/22-rdf-syntax-ns#"
   xmlns:svg="http://www.w3.org/2000/svg"
   xmlns="http://www.w3.org/2000/svg"
   xmlns:sodipodi="http://sodipodi.sourceforge.net/DTD/sodipodi-0.dtd"
   xmlns:inkscape="http://www.inkscape.org/namespaces/inkscape"
   width="128"
   height="128"
   viewBox="0 0 128 128"
   id="svg2"
   version="1.1"
   inkscape:version="0.91 r13725"
   sodipodi:docname="icon.svg"
   inkscape:export-filename="/mnt/ExpansionHD/Clients/Apps/TicTacToe3/web/img/icon.png"
   inkscape:export-xdpi="96.722549"
   inkscape:export-ydpi="96.722549">
  <defs
     id="defs4">
    <clipPath
       clipPathUnits="userSpaceOnUse"
       id="clipPath4511">
      <rect
         style="opacity:1;fill:#e6e6e6;fill-opacity:1;fill-rule:nonzero;stroke:none;stroke-width:5;stroke-linecap:square;stroke-linejoin:miter;stroke-miterlimit:4;stroke-dasharray:none;stroke-opacity:1"
         id="rect4513"
         width="128"
         height="128"
         x="-10"
         y="936.36218" />
    </clipPath>
    <filter
       style="color-interpolation-filters:sRGB;"
       inkscape:label="Drop Shadow"
       id="filter5138">
      <feFlood
         flood-opacity="1"
         flood-color="rgb(0,0,0)"
         result="flood"
         id="feFlood5140" />
      <feComposite
         in="flood"
         in2="SourceGraphic"
         operator="in"
         result="composite1"
         id="feComposite5142" />
      <feGaussianBlur
         in="composite1"
         stdDeviation="3.2"
         result="blur"
         id="feGaussianBlur5144" />
      <feOffset
         dx="0"
         dy="0"
         result="offset"
         id="feOffset5146" />
      <feComposite
         in="offset"
         in2="SourceGraphic"
         operator="out"
         result="composite2"
         id="feComposite5148" />
    </filter>
  </defs>
  <sodipodi:namedview
     id="base"
     pagecolor="#ffffff"
     bordercolor="#666666"
     borderopacity="1.0"
     inkscape:pageopacity="0.0"
     inkscape:pageshadow="2"
     inkscape:zoom="2.8"
     inkscape:cx="58.741624"
     inkscape:cy="59.830859"
     inkscape:document-units="px"
     inkscape:current-layer="text5150"
     showgrid="false"
     units="px" />
  <metadata
     id="metadata7">
    <rdf:RDF>
      <cc:Work
         rdf:about="">
        <dc:format>image/svg+xml</dc:format>
        <dc:type
           rdf:resource="http://purl.org/dc/dcmitype/StillImage" />
        <dc:title />
      </cc:Work>
    </rdf:RDF>
  </metadata>
  <g
     inkscape:label="Layer 1"
     inkscape:groupmode="layer"
     id="layer1"
     transform="translate(0,-924.3622)">
    <g
       transform="matrix(1.2338246,0,0,1.2338246,62.770657,-310.22253)"
       id="layer1-4"
       inkscape:label="Layer 1">
      <circle
         r="16.762199"
         cy="1027.3622"
         cx="25"
         id="path4136"
         style="opacity:1;fill:none;fill-opacity:0.89634142;fill-rule:nonzero;stroke:#4caf50;stroke-width:7;stroke-linecap:square;stroke-linejoin:miter;stroke-miterlimit:4;stroke-dasharray:none;stroke-opacity:1" />
    </g>
    <g
       transform="matrix(0.82048036,0,0,0.82048036,83.97822,146.95286)"
       id="layer1-4-9"
       inkscape:label="Layer 1" />
    <g
       transform="matrix(1.2856487,0,0,1.2856487,2.2425589,-363.46472)"
       id="layer1-0-2"
       inkscape:label="Layer 1">
      <rect
         transform="matrix(0.70710678,0.70710678,-0.70710678,0.70710678,0,0)"
         y="705.27716"
         x="720.13245"
         height="7"
         width="48"
         id="rect4176-7"
         style="opacity:1;fill:#ffc107;fill-opacity:1;fill-rule:nonzero;stroke:none;stroke-width:7;stroke-linecap:square;stroke-linejoin:miter;stroke-miterlimit:4;stroke-dasharray:none;stroke-opacity:1" />
      <rect
         transform="matrix(0.70710678,-0.70710678,0.70710678,0.70710678,0,0)"
         y="740.63245"
         x="-732.77716"
         height="7"
         width="48"
         id="rect4176-8-3"
         style="opacity:1;fill:#ffc107;fill-opacity:1;fill-rule:nonzero;stroke:none;stroke-width:7;stroke-linecap:square;stroke-linejoin:miter;stroke-miterlimit:4;stroke-dasharray:none;stroke-opacity:1" />
    </g>
    <g
       transform="matrix(0.82048036,0,0,0.82048036,138.92925,146.9329)"
       id="layer1-4-9-1"
       inkscape:label="Layer 1" />
    <g
       transform="matrix(1.1839104,0,0,1.1839104,5.2929074,-197.8094)"
       id="layer1-1-6-60"
       inkscape:label="Layer 1">
      <path
         inkscape:connector-curvature="0"
         id="path4145-7-66"
         d="m 24.807319,1011.054 -17.2242304,35.5757 34.8007654,0 z"
         style="fill:none;fill-opacity:1;fill-rule:evenodd;stroke:#9c27b0;stroke-width:5.9126096;stroke-linecap:butt;stroke-linejoin:miter;stroke-miterlimit:4;stroke-dasharray:none;stroke-opacity:1" />
    </g>
    <g
       transform="matrix(0.82048036,0,0,0.82048036,167.21352,144.15498)"
       id="layer1-4-9-6"
       inkscape:label="Layer 1" />
    <g
       style="font-style:normal;font-weight:normal;font-size:45.53153229px;line-height:125%;font-family:Sans;letter-spacing:0px;word-spacing:0px;fill:#000000;fill-opacity:1;stroke:none;stroke-width:1px;stroke-linecap:butt;stroke-linejoin:miter;stroke-opacity:1"
       id="text5150">
      <path
         d="m 87.243518,1013.0732 5.245407,0 q 3.960109,0 5.870688,-1.98 1.910577,-2.0148 1.910577,-5.2454 0,-1.4938 -0.451589,-2.7096 -0.416854,-1.2506 -1.285299,-2.119 -0.868445,-0.9032 -2.223219,-1.38952 -1.320036,-0.48633 -3.091664,-0.48633 -1.458987,0 -2.744286,0.41686 -1.250561,0.41685 -2.223219,1.21579 -0.937921,0.7643 -1.493726,1.8759 -0.555804,1.1116 -0.555804,2.5011 l -9.657109,0 q 0,-3.0917 1.250561,-5.62753 1.285299,-2.53586 3.508518,-4.34222 2.223219,-1.84111 5.21067,-2.8485 3.022188,-1.0074 6.495968,-1.0074 3.751683,0 6.878085,0.93792 3.126403,0.90318 5.349623,2.74429 2.22322,1.80636 3.43904,4.51591 1.25056,2.67483 1.25056,6.21803 0,1.6327 -0.48633,3.2307 -0.48633,1.5632 -1.42425,2.9874 -0.93792,1.4243 -2.32743,2.6401 -1.38951,1.1811 -3.19588,2.0495 2.11901,0.7642 3.64747,1.9453 1.5632,1.1811 2.5706,2.7096 1.00739,1.4937 1.49372,3.3001 0.48633,1.8063 0.48633,3.8211 0,3.5433 -1.35477,6.3223 -1.35478,2.779 -3.71695,4.6896 -2.36217,1.8758 -5.62752,2.8832 -3.230615,0.9727 -6.982298,0.9727 -3.230615,0 -6.322279,-0.8684 -3.056927,-0.9032 -5.453835,-2.6749 -2.396908,-1.8063 -3.855895,-4.5159 -1.42425,-2.7095 -1.42425,-6.3917 l 9.657108,0 q 0,1.459 0.555805,2.7095 0.555805,1.2158 1.563201,2.119 1.042134,0.8685 2.431646,1.3895 1.389512,0.4864 3.056926,0.4864 3.682207,0 5.766475,-1.9453 2.084266,-1.9454 2.084266,-5.2802 0,-2.0495 -0.59054,-3.5085 -0.590543,-1.459 -1.736891,-2.3969 -1.111609,-0.9379 -2.709548,-1.3895 -1.563201,-0.4516 -3.543256,-0.4516 l -5.245407,0 0,-7.5034 z"
         style="font-style:normal;font-variant:normal;font-weight:bold;font-stretch:normal;font-size:71.143013px;font-family:'Roboto Mono';-inkscape-font-specification:'Roboto Mono Bold'"
         id="path4162" />
    </g>
  </g>
</svg>
